Creedence Clearwater Revival - Pendulum (1970) - 1989 
http://en.wikipedia.org/wiki/Pendulum_(Creedence_Clearwater_Revival_album)


        -= Creedence Clearwater Revival =-

-------------------------------------

             1970 - Pendulum

-------------------------------------

Track List

01. Creedence Clearwater Revival - Pagan Baby (6:24)
02. Creedence Clearwater Revival - Sailor's Lament (3:45)
03. Creedence Clearwater Revival - Chameleon (3:19)
04. Creedence Clearwater Revival - Have You Ever Seen The Rain- (2:40)
05. Creedence Clearwater Revival - (Wish I Could) Hideaway (3:42)
06. Creedence Clearwater Revival - Born To Move (5:40)
07. Creedence Clearwater Revival - Hey Tonight (2:43)
08. Creedence Clearwater Revival - It's Just A Thought (3:52)
09. Creedence Clearwater Revival - Molina (2:43)
10. Creedence Clearwater Revival - (Theme from) Rude Awakening No 2 (6:21)

Total Files - 10
The total duration - [41:10]
-------------------------------------

rip by KroMvEL

EAC LOG:
Exact Audio Copy V1.0 beta 3 from 29. August 2011

EAC extraction logfile from 12. May 2013, 16:47

Creedence Clearwater Revival / Pendulum

Used drive  : TSSTcorpCDDVDW TS-L633C   Adapter: 0  ID: 0

Read mode               : Secure
Utilize accurate stream : Yes
Defeat audio cache      : Yes
Make use of C2 pointers : No

Read offset correction                      : 6
Overread into Lead-In and Lead-Out          : No
Fill up missing offset samples with silence : Yes
Delete leading and trailing silent blocks   : No
Null samples used in CRC calculations       : Yes
Used interface                              : Native Win32 interface for Win NT & 2000

Used output format : Internal WAV Routines
Sample format      : 44.100 Hz; 16 Bit; Stereo


TOC of the extracted CD

     Track |   Start  |  Length  | Start sector | End sector 
    ---------------------------------------------------------
        1  |  0:00.00 |  6:24.28 |         0    |    28827   
        2  |  6:24.28 |  3:45.17 |     28828    |    45719   
        3  | 10:09.45 |  3:19.13 |     45720    |    60657   
        4  | 13:28.58 |  2:40.35 |     60658    |    72692   
        5  | 16:09.18 |  3:41.67 |     72693    |    89334   
        6  | 19:51.10 |  5:40.28 |     89335    |   114862   
        7  | 25:31.38 |  2:42.50 |    114863    |   127062   
        8  | 28:14.13 |  3:52.12 |    127063    |   144474   
        9  | 32:06.25 |  2:42.53 |    144475    |   156677   
       10  | 34:49.03 |  6:20.62 |    156678    |   185239   


Range status and errors

Selected range

     Filename C:Creedence Clearwater Revival - PendulumCreedence Clearwater Revival - Pendulum.wav

     Peak level 98.8 %
     Extraction speed 1.7 X
     Range quality 100.0 %
     Test CRC A760489C
     Copy CRC A760489C
     Copy OK

No errors occurred

 
AccurateRip summary
 
Track  1  accurately ripped (confidence 3)  [3CA62877]  (AR v1)
Track  2  accurately ripped (confidence 3)  [09B6F7A5]  (AR v1)
Track  3  accurately ripped (confidence 3)  [7C2437AD]  (AR v1)
Track  4  accurately ripped (confidence 3)  [FD5E0C9F]  (AR v1)
Track  5  accurately ripped (confidence 3)  [93372B32]  (AR v1)
Track  6  accurately ripped (confidence 3)  [3F0AF171]  (AR v1)
Track  7  accurately ripped (confidence 3)  [F59C42EE]  (AR v1)
Track  8  accurately ripped (confidence 3)  [84EFC843]  (AR v1)
Track  9  accurately ripped (confidence 3)  [72C012BF]  (AR v1)
Track 10  accurately ripped (confidence 3)  [13C8570F]  (AR v1)
 
All tracks accurately ripped

End of status report

---- CUETools DB Plugin V2.1.5

[CTDB TOCID: scdD_iwD3bENHcjnccbin2ACb5Q-] found
Submit result: scdD_iwD3bENHcjnccbin2ACb5Q- has been confirmed
Track | CTDB Status
  1   | (1/1) Accurately ripped
  2   | (1/1) Accurately ripped
  3   | (1/1) Accurately ripped
  4   | (1/1) Accurately ripped
  5   | (1/1) Accurately ripped
  6   | (1/1) Accurately ripped
  7   | (1/1) Accurately ripped
  8   | (1/1) Accurately ripped
  9   | (1/1) Accurately ripped
 10   | (1/1) Accurately ripped


==== Log checksum C4E732D28B7094475369B23A076B0624AC295AB246A36D1DC13CF36235C047CE ====